{
  "accessors": [
    {
      "bufferView": 2,
      "componentType": 5126,
      "count": 26611,
      "max": [
        0.3621259927749634,
        0.324878990650177,
        5.004459857940674
      ],
      "min": [
        -1.4627399444580078,
        -0.32219600677490234,
        4.075561046600342
      ],
      "type": "VEC3"
    },
    {
      "bufferView": 2,
      "byteOffset": 319332,
      "componentType": 5126,
      "count": 26611,
      "max": [
        1.0,
        1.0,
        1.0
      ],
      "min": [
        -1.0,
        -1.0,
        -1.0
      ],
      "type": "VEC3"
    },
    {
      "bufferView": 3,
      "componentType": 5126,
      "count": 26611,
      "max": [
        1.0,
        1.0,
        1.0,
        1.0
      ],
      "min": [
        -1.0,
        -1.0,
        -1.0,
        1.0
      ],
      "type": "VEC4"
    },
    {
      "bufferView": 1,
      "componentType": 5126,
      "count": 26611,
      "max": [
        0.9997400045394897,
        1.0
      ],
      "min": [
        0.00035799999022856355,
        -0.0
      ],
      "type": "VEC2"
    },
    {
      "bufferView": 0,
      "componentType": 5125,
      "count": 132108,
      "type": "SCALAR"
    },
    {
      "bufferView": 2,
      "byteOffset": 638664,
      "componentType": 5126,
      "count": 13430,
      "max": [
        1.167191982269287,
        0.19176000356674194,
        4.718842029571533
      ],
      "min": [
        -2.465424060821533,
        -0.19176000356674194,
        2.766690969467163
      ],
      "type": "VEC3"
    },
    {
      "bufferView": 2,
      "byteOffset": 799824,
      "componentType": 5126,
      "count": 13430,
      "max": [
        0.9998782873153687,
        1.0,
        0.999971866607666
      ],
      "min": [
        -0.997090220451355,
        -1.0,
        -0.9994238615036011
      ],
      "type": "VEC3"
    },
    {
      "bufferView": 3,
      "byteOffset": 425776,
      "componentType": 5126,
      "count": 13430,
      "max": [
        0.9998194575309753,
        1.0,
        0.9834297895431519,
        1.0
      ],
      "min": [
        -0.9996670484542847,
        -0.9998716711997986,
        -0.9994282126426697,
        1.0
      ],
      "type": "VEC4"
    },
    {
      "bufferView": 1,
      "byteOffset": 212888,
      "componentType": 5126,
      "count": 13430,
      "max": [
        0.9935830235481262,
        0.9921950101852417
      ],
      "min": [
        -0.0,
        0.18316100537776947
      ],
      "type": "VEC2"
    },
    {
      "bufferView": 0,
      "byteOffset": 528432,
      "componentType": 5125,
      "count": 61326,
      "type": "SCALAR"
    },
    {
      "bufferView": 2,
      "byteOffset": 960984,
      "componentType": 5126,
      "count": 8687,
      "max": [
        0.6190270185470581,
        0.6357280015945435,
        4.320140838623047
      ],
      "min": [
        -0.8030440211296082,
        -0.6357280015945435,
        0.051777999848127365
      ],
      "type": "VEC3"
    },
    {
      "bufferView": 2,
      "byteOffset": 1065228,
      "componentType": 5126,
      "count": 8687,
      "max": [
        1.0,
        1.0,
        1.0
      ],
      "min": [
        -1.0,
        -1.0,
        -1.0
      ],
      "type": "VEC3"
    },
    {
      "bufferView": 3,
      "byteOffset": 640656,
      "componentType": 5126,
      "count": 8687,
      "max": [
        0.9995242357254028,
        0.9999997615814209,
        1.0,
        1.0
      ],
      "min": [
        -0.9996809363365173,
        -0.9995924234390259,
        -1.0,
        1.0
      ],
      "type": "VEC4"
    },
    {
      "bufferView": 1,
      "byteOffset": 320328,
      "componentType": 5126,
      "count": 8687,
      "max": [
        0.9946439862251282,
        0.9889289736747742
      ],
      "min": [
        0.0,
        -0.0
      ],
      "type": "VEC2"
    },
    {
      "bufferView": 0,
      "byteOffset": 773736,
      "componentType": 5125,
      "count": 39168,
      "type": "SCALAR"
    }
  ],
  "asset": {
    "extras": {
      "author": "j9321912 (https://sketchfab.com/j9321912)",
      "license": "CC-BY-4.0 (http://creativecommons.org/licenses/by/4.0/)",
      "source": "https://sketchfab.com/3d-models/fire-extinguisher-3522f466c8694bc395bb887dbb85c2d0",
      "title": "fire extinguisher"
    },
    "generator": "Sketchfab-15.83.0",
    "version": "2.0"
  },
  "bufferViews": [
    {
      "buffer": 0,
      "byteLength": 930408,
      "name": "floatBufferViews",
      "target": 34963
    },
    {
      "buffer": 0,
      "byteLength": 389824,
      "byteOffset": 930408,
      "byteStride": 8,
      "name": "floatBufferViews",
      "target": 34962
    },
    {
      "buffer": 0,
      "byteLength": 1169472,
      "byteOffset": 1320232,
      "byteStride": 12,
      "name": "floatBufferViews",
      "target": 34962
    },
    {
      "buffer": 0,
      "byteLength": 779648,
      "byteOffset": 2489704,
      "byteStride": 16,
      "name": "floatBufferViews",
      "target": 34962
    }
  ],
  "buffers": [
    {
      "byteLength": 3269352,
      "uri": "scene.bin"
    }
  ],
  "images": [
    {
      "uri": "textures/Material_baseColor.png"
    },
    {
      "uri": "textures/Material_metallicRoughness.png"
    },
    {
      "uri": "textures/Material_normal.png"
    },
    {
      "uri": "textures/Material.002_baseColor.png"
    },
    {
      "uri": "textures/Material.002_metallicRoughness.png"
    },
    {
      "uri": "textures/Material.002_normal.png"
    },
    {
      "uri": "textures/Material.003_baseColor.png"
    },
    {
      "uri": "textures/Material.003_metallicRoughness.png"
    },
    {
      "uri": "textures/Material.003_normal.png"
    }
  ],
  "materials": [
    {
      "doubleSided": true,
      "name": "Material",
      "normalTexture": {
        "index": 2
      },
      "pbrMetallicRoughness": {
        "baseColorTexture": {
          "index": 0
        },
        "metallicRoughnessTexture": {
          "index": 1
        }
      }
    },
    {
      "doubleSided": true,
      "name": "Material.002",
      "normalTexture": {
        "index": 5
      },
      "pbrMetallicRoughness": {
        "baseColorTexture": {
          "index": 3
        },
        "metallicRoughnessTexture": {
          "index": 4
        }
      }
    },
    {
      "doubleSided": true,
      "name": "Material.003",
      "normalTexture": {
        "index": 8
      },
      "pbrMetallicRoughness": {
        "baseColorTexture": {
          "index": 6
        },
        "metallicRoughnessTexture": {
          "index": 7
        }
      }
    }
  ],
  "meshes": [
    {
      "name": "Object_0",
      "primitives": [
        {
          "attributes": {
            "NORMAL": 1,
            "POSITION": 0,
            "TANGENT": 2,
            "TEXCOORD_0": 3
          },
          "indices": 4,
          "material": 0,
          "mode": 4
        }
      ]
    },
    {
      "name": "Object_1",
      "primitives": [
        {
          "attributes": {
            "NORMAL": 6,
            "POSITION": 5,
            "TANGENT": 7,
            "TEXCOORD_0": 8
          },
          "indices": 9,
          "material": 1,
          "mode": 4
        }
      ]
    },
    {
      "name": "Object_2",
      "primitives": [
        {
          "attributes": {
            "NORMAL": 11,
            "POSITION": 10,
            "TANGENT": 12,
            "TEXCOORD_0": 13
          },
          "indices": 14,
          "material": 2,
          "mode": 4
        }
      ]
    }
  ],
  "nodes": [
    {
      "children": [
        1
      ],
      "matrix": [
        1.0,
        0.0,
        0.0,
        0.0,
        0.0,
        2.220446049250313e-16,
        -1.0,
        0.0,
        0.0,
        1.0,
        2.220446049250313e-16,
        0.0,
        0.0,
        0.0,
        0.0,
        1.0
      ],
      "name": "Sketchfab_model"
    },
    {
      "children": [
        2,
        3,
        4
      ],
      "name": "fire extinguisher.obj.cleaner.materialmerger.gles"
    },
    {
      "mesh": 0,
      "name": "Object_2"
    },
    {
      "mesh": 1,
      "name": "Object_3"
    },
    {
      "mesh": 2,
      "name": "Object_4"
    }
  ],
  "samplers": [
    {
      "magFilter": 9729,
      "minFilter": 9987,
      "wrapS": 10497,
      "wrapT": 10497
    }
  ],
  "scene": 0,
  "scenes": [
    {
      "name": "Sketchfab_Scene",
      "nodes": [
        0
      ]
    }
  ],
  "textures": [
    {
      "sampler": 0,
      "source": 0
    },
    {
      "sampler": 0,
      "source": 1
    },
    {
      "sampler": 0,
      "source": 2
    },
    {
      "sampler": 0,
      "source": 3
    },
    {
      "sampler": 0,
      "source": 4
    },
    {
      "sampler": 0,
      "source": 5
    },
    {
      "sampler": 0,
      "source": 6
    },
    {
      "sampler": 0,
      "source": 7
    },
    {
      "sampler": 0,
      "source": 8
    }
  ]
}
